<mxfile host="app.diagrams.net" modified="2024-01-24T21:01:27.173Z" agent="Mozilla/5.0 (Windows NT 10.0; Win64; x64) AppleWebKit/537.36 (KHTML, like Gecko) Chrome/120.0.0.0 Safari/537.36" etag="nOVfQqf3-3YJIgYHIcJa" version="23.0.0" type="github">
  <diagram id="R2lEEEUBdFMjLlhIrx00" name="Page-1">
    <mxGraphModel dx="1509" dy="777" grid="1" gridSize="10" guides="1" tooltips="1" connect="0" arrows="1" fold="1" page="1" pageScale="1" pageWidth="850" pageHeight="1100" math="0" shadow="0" extFonts="Permanent Marker^https://fonts.googleapis.com/css?family=Permanent+Marker">
      <root>
        <mxCell id="0" />
        <mxCell id="1" parent="0" />
        <mxCell id="G8HXqrcgbXMNbkqpugEw-3" value="name" style="ellipse;whiteSpace=wrap;html=1;align=center;newEdgeStyle={&quot;edgeStyle&quot;:&quot;entityRelationEdgeStyle&quot;,&quot;startArrow&quot;:&quot;none&quot;,&quot;endArrow&quot;:&quot;none&quot;,&quot;segment&quot;:10,&quot;curved&quot;:1,&quot;sourcePerimeterSpacing&quot;:0,&quot;targetPerimeterSpacing&quot;:0};treeFolding=1;treeMoving=1;" vertex="1" parent="1">
          <mxGeometry x="111" y="51" width="100" height="40" as="geometry" />
        </mxCell>
        <mxCell id="G8HXqrcgbXMNbkqpugEw-4" value="description" style="ellipse;whiteSpace=wrap;html=1;align=center;newEdgeStyle={&quot;edgeStyle&quot;:&quot;entityRelationEdgeStyle&quot;,&quot;startArrow&quot;:&quot;none&quot;,&quot;endArrow&quot;:&quot;none&quot;,&quot;segment&quot;:10,&quot;curved&quot;:1,&quot;sourcePerimeterSpacing&quot;:0,&quot;targetPerimeterSpacing&quot;:0};treeFolding=1;treeMoving=1;" vertex="1" parent="1">
          <mxGeometry x="221" y="55" width="100" height="40" as="geometry" />
        </mxCell>
        <mxCell id="G8HXqrcgbXMNbkqpugEw-5" value="average" style="ellipse;whiteSpace=wrap;html=1;align=center;newEdgeStyle={&quot;edgeStyle&quot;:&quot;entityRelationEdgeStyle&quot;,&quot;startArrow&quot;:&quot;none&quot;,&quot;endArrow&quot;:&quot;none&quot;,&quot;segment&quot;:10,&quot;curved&quot;:1,&quot;sourcePerimeterSpacing&quot;:0,&quot;targetPerimeterSpacing&quot;:0};treeFolding=1;treeMoving=1;" vertex="1" parent="1">
          <mxGeometry x="331" y="55" width="100" height="40" as="geometry" />
        </mxCell>
        <mxCell id="G8HXqrcgbXMNbkqpugEw-9" value="id" style="ellipse;whiteSpace=wrap;html=1;align=center;newEdgeStyle={&quot;edgeStyle&quot;:&quot;entityRelationEdgeStyle&quot;,&quot;startArrow&quot;:&quot;none&quot;,&quot;endArrow&quot;:&quot;none&quot;,&quot;segment&quot;:10,&quot;curved&quot;:1,&quot;sourcePerimeterSpacing&quot;:0,&quot;targetPerimeterSpacing&quot;:0};treeFolding=1;treeMoving=1;" vertex="1" parent="1">
          <mxGeometry x="451" y="55" width="100" height="40" as="geometry" />
        </mxCell>
        <mxCell id="G8HXqrcgbXMNbkqpugEw-10" value="note" style="ellipse;whiteSpace=wrap;html=1;align=center;newEdgeStyle={&quot;edgeStyle&quot;:&quot;entityRelationEdgeStyle&quot;,&quot;startArrow&quot;:&quot;none&quot;,&quot;endArrow&quot;:&quot;none&quot;,&quot;segment&quot;:10,&quot;curved&quot;:1,&quot;sourcePerimeterSpacing&quot;:0,&quot;targetPerimeterSpacing&quot;:0};treeFolding=1;treeMoving=1;" vertex="1" parent="1">
          <mxGeometry x="595" y="11" width="100" height="40" as="geometry" />
        </mxCell>
        <mxCell id="G8HXqrcgbXMNbkqpugEw-11" value="coeficient" style="ellipse;whiteSpace=wrap;html=1;align=center;newEdgeStyle={&quot;edgeStyle&quot;:&quot;entityRelationEdgeStyle&quot;,&quot;startArrow&quot;:&quot;none&quot;,&quot;endArrow&quot;:&quot;none&quot;,&quot;segment&quot;:10,&quot;curved&quot;:1,&quot;sourcePerimeterSpacing&quot;:0,&quot;targetPerimeterSpacing&quot;:0};treeFolding=1;treeMoving=1;" vertex="1" parent="1">
          <mxGeometry x="730" y="48" width="100" height="40" as="geometry" />
        </mxCell>
        <mxCell id="G8HXqrcgbXMNbkqpugEw-13" value="" style="line;strokeWidth=1;html=1;perimeter=backbonePerimeter;points=[];outlineConnect=0;" vertex="1" parent="1">
          <mxGeometry x="471" y="78" width="60" height="10" as="geometry" />
        </mxCell>
        <mxCell id="G8HXqrcgbXMNbkqpugEw-17" value="Courses" style="rounded=0;whiteSpace=wrap;html=1;" vertex="1" parent="1">
          <mxGeometry x="60" y="220" width="170" height="40" as="geometry" />
        </mxCell>
        <mxCell id="G8HXqrcgbXMNbkqpugEw-20" value="" style="endArrow=none;html=1;rounded=0;" edge="1" parent="1" source="G8HXqrcgbXMNbkqpugEw-17">
          <mxGeometry width="50" height="50" relative="1" as="geometry">
            <mxPoint y="140" as="sourcePoint" />
            <mxPoint x="50" y="90" as="targetPoint" />
          </mxGeometry>
        </mxCell>
        <mxCell id="G8HXqrcgbXMNbkqpugEw-21" value="" style="endArrow=none;html=1;rounded=0;exitX=0.5;exitY=0;exitDx=0;exitDy=0;" edge="1" parent="1" source="G8HXqrcgbXMNbkqpugEw-17">
          <mxGeometry width="50" height="50" relative="1" as="geometry">
            <mxPoint x="160" y="241" as="sourcePoint" />
            <mxPoint x="150" y="91" as="targetPoint" />
          </mxGeometry>
        </mxCell>
        <mxCell id="G8HXqrcgbXMNbkqpugEw-22" value="" style="endArrow=none;html=1;rounded=0;exitX=0.672;exitY=-0.042;exitDx=0;exitDy=0;exitPerimeter=0;" edge="1" parent="1" source="G8HXqrcgbXMNbkqpugEw-17">
          <mxGeometry width="50" height="50" relative="1" as="geometry">
            <mxPoint x="221" y="242" as="sourcePoint" />
            <mxPoint x="250" y="91" as="targetPoint" />
          </mxGeometry>
        </mxCell>
        <mxCell id="G8HXqrcgbXMNbkqpugEw-23" value="" style="endArrow=none;html=1;rounded=0;exitX=0.75;exitY=0;exitDx=0;exitDy=0;" edge="1" parent="1" source="G8HXqrcgbXMNbkqpugEw-17">
          <mxGeometry width="50" height="50" relative="1" as="geometry">
            <mxPoint x="340" y="246" as="sourcePoint" />
            <mxPoint x="369" y="95" as="targetPoint" />
          </mxGeometry>
        </mxCell>
        <mxCell id="G8HXqrcgbXMNbkqpugEw-24" value="Notes" style="rounded=0;whiteSpace=wrap;html=1;" vertex="1" parent="1">
          <mxGeometry x="560" y="220" width="170" height="40" as="geometry" />
        </mxCell>
        <mxCell id="G8HXqrcgbXMNbkqpugEw-29" value="" style="endArrow=none;html=1;rounded=0;" edge="1" parent="1" source="G8HXqrcgbXMNbkqpugEw-24" target="G8HXqrcgbXMNbkqpugEw-9">
          <mxGeometry width="50" height="50" relative="1" as="geometry">
            <mxPoint x="450" y="180" as="sourcePoint" />
            <mxPoint x="500" y="130" as="targetPoint" />
          </mxGeometry>
        </mxCell>
        <mxCell id="G8HXqrcgbXMNbkqpugEw-31" value="" style="endArrow=none;html=1;rounded=0;exitX=0.5;exitY=0;exitDx=0;exitDy=0;entryX=0.5;entryY=1;entryDx=0;entryDy=0;" edge="1" parent="1" source="G8HXqrcgbXMNbkqpugEw-24" target="G8HXqrcgbXMNbkqpugEw-10">
          <mxGeometry width="50" height="50" relative="1" as="geometry">
            <mxPoint x="560" y="240" as="sourcePoint" />
            <mxPoint x="580" y="50" as="targetPoint" />
          </mxGeometry>
        </mxCell>
        <mxCell id="G8HXqrcgbXMNbkqpugEw-32" value="" style="endArrow=none;html=1;rounded=0;fontStyle=1;entryX=0.5;entryY=1;entryDx=0;entryDy=0;exitX=0.843;exitY=0.063;exitDx=0;exitDy=0;exitPerimeter=0;" edge="1" parent="1" source="G8HXqrcgbXMNbkqpugEw-24" target="G8HXqrcgbXMNbkqpugEw-11">
          <mxGeometry width="50" height="50" relative="1" as="geometry">
            <mxPoint x="640" y="285" as="sourcePoint" />
            <mxPoint x="660" y="95" as="targetPoint" />
          </mxGeometry>
        </mxCell>
        <mxCell id="G8HXqrcgbXMNbkqpugEw-34" style="edgeStyle=orthogonalEdgeStyle;rounded=0;orthogonalLoop=1;jettySize=auto;html=1;jumpStyle=line;endArrow=none;endFill=0;" edge="1" parent="1" source="G8HXqrcgbXMNbkqpugEw-33" target="G8HXqrcgbXMNbkqpugEw-24">
          <mxGeometry relative="1" as="geometry" />
        </mxCell>
        <mxCell id="G8HXqrcgbXMNbkqpugEw-35" style="edgeStyle=orthogonalEdgeStyle;rounded=0;orthogonalLoop=1;jettySize=auto;html=1;entryX=1;entryY=0.5;entryDx=0;entryDy=0;endArrow=open;endFill=0;" edge="1" parent="1" source="G8HXqrcgbXMNbkqpugEw-33" target="G8HXqrcgbXMNbkqpugEw-17">
          <mxGeometry relative="1" as="geometry" />
        </mxCell>
        <mxCell id="G8HXqrcgbXMNbkqpugEw-33" value="liÃ©e&amp;nbsp;" style="html=1;whiteSpace=wrap;aspect=fixed;shape=isoRectangle;" vertex="1" parent="1">
          <mxGeometry x="340" y="205" width="116.67" height="70" as="geometry" />
        </mxCell>
        <mxCell id="G8HXqrcgbXMNbkqpugEw-36" value="Users" style="rounded=0;whiteSpace=wrap;html=1;" vertex="1" parent="1">
          <mxGeometry x="570" y="470" width="170" height="40" as="geometry" />
        </mxCell>
        <mxCell id="G8HXqrcgbXMNbkqpugEw-39" style="edgeStyle=orthogonalEdgeStyle;rounded=0;orthogonalLoop=1;jettySize=auto;html=1;endArrow=none;endFill=0;" edge="1" parent="1" source="G8HXqrcgbXMNbkqpugEw-38" target="G8HXqrcgbXMNbkqpugEw-24">
          <mxGeometry relative="1" as="geometry" />
        </mxCell>
        <mxCell id="G8HXqrcgbXMNbkqpugEw-38" value="appartient&amp;nbsp;" style="html=1;whiteSpace=wrap;aspect=fixed;shape=isoRectangle;" vertex="1" parent="1">
          <mxGeometry x="586.67" y="330" width="116.67" height="70" as="geometry" />
        </mxCell>
        <mxCell id="G8HXqrcgbXMNbkqpugEw-41" value="Audits" style="rounded=0;whiteSpace=wrap;html=1;" vertex="1" parent="1">
          <mxGeometry x="60" y="470" width="170" height="40" as="geometry" />
        </mxCell>
        <mxCell id="G8HXqrcgbXMNbkqpugEw-43" style="edgeStyle=orthogonalEdgeStyle;rounded=0;orthogonalLoop=1;jettySize=auto;html=1;entryX=0.5;entryY=1;entryDx=0;entryDy=0;endArrow=open;endFill=0;" edge="1" parent="1" source="G8HXqrcgbXMNbkqpugEw-42" target="G8HXqrcgbXMNbkqpugEw-17">
          <mxGeometry relative="1" as="geometry" />
        </mxCell>
        <mxCell id="G8HXqrcgbXMNbkqpugEw-44" style="edgeStyle=orthogonalEdgeStyle;rounded=0;orthogonalLoop=1;jettySize=auto;html=1;entryX=0.5;entryY=0;entryDx=0;entryDy=0;endArrow=none;endFill=0;" edge="1" parent="1" source="G8HXqrcgbXMNbkqpugEw-42" target="G8HXqrcgbXMNbkqpugEw-41">
          <mxGeometry relative="1" as="geometry" />
        </mxCell>
        <mxCell id="G8HXqrcgbXMNbkqpugEw-42" value="liÃ©e&amp;nbsp;" style="html=1;whiteSpace=wrap;aspect=fixed;shape=isoRectangle;" vertex="1" parent="1">
          <mxGeometry x="86.66999999999996" y="330" width="116.67" height="70" as="geometry" />
        </mxCell>
        <mxCell id="G8HXqrcgbXMNbkqpugEw-45" value="" style="group" vertex="1" connectable="0" parent="1">
          <mxGeometry x="1" y="50" width="100" height="40" as="geometry" />
        </mxCell>
        <mxCell id="G8HXqrcgbXMNbkqpugEw-2" value="id" style="ellipse;whiteSpace=wrap;html=1;align=center;newEdgeStyle={&quot;edgeStyle&quot;:&quot;entityRelationEdgeStyle&quot;,&quot;startArrow&quot;:&quot;none&quot;,&quot;endArrow&quot;:&quot;none&quot;,&quot;segment&quot;:10,&quot;curved&quot;:1,&quot;sourcePerimeterSpacing&quot;:0,&quot;targetPerimeterSpacing&quot;:0};treeFolding=1;treeMoving=1;" vertex="1" parent="G8HXqrcgbXMNbkqpugEw-45">
          <mxGeometry width="100" height="40" as="geometry" />
        </mxCell>
        <mxCell id="G8HXqrcgbXMNbkqpugEw-8" value="" style="line;strokeWidth=1;html=1;perimeter=backbonePerimeter;points=[];outlineConnect=0;" vertex="1" parent="G8HXqrcgbXMNbkqpugEw-45">
          <mxGeometry x="20" y="22" width="60" height="10" as="geometry" />
        </mxCell>
        <mxCell id="G8HXqrcgbXMNbkqpugEw-46" value="" style="group" vertex="1" connectable="0" parent="1">
          <mxGeometry x="20" y="630" width="100" height="40" as="geometry" />
        </mxCell>
        <mxCell id="G8HXqrcgbXMNbkqpugEw-47" value="id" style="ellipse;whiteSpace=wrap;html=1;align=center;newEdgeStyle={&quot;edgeStyle&quot;:&quot;entityRelationEdgeStyle&quot;,&quot;startArrow&quot;:&quot;none&quot;,&quot;endArrow&quot;:&quot;none&quot;,&quot;segment&quot;:10,&quot;curved&quot;:1,&quot;sourcePerimeterSpacing&quot;:0,&quot;targetPerimeterSpacing&quot;:0};treeFolding=1;treeMoving=1;" vertex="1" parent="G8HXqrcgbXMNbkqpugEw-46">
          <mxGeometry width="100" height="40" as="geometry" />
        </mxCell>
        <mxCell id="G8HXqrcgbXMNbkqpugEw-48" value="" style="line;strokeWidth=1;html=1;perimeter=backbonePerimeter;points=[];outlineConnect=0;" vertex="1" parent="G8HXqrcgbXMNbkqpugEw-46">
          <mxGeometry x="20" y="22" width="60" height="10" as="geometry" />
        </mxCell>
        <mxCell id="G8HXqrcgbXMNbkqpugEw-49" value="" style="group" vertex="1" connectable="0" parent="1">
          <mxGeometry x="440" y="610" width="100" height="40" as="geometry" />
        </mxCell>
        <mxCell id="G8HXqrcgbXMNbkqpugEw-50" value="id" style="ellipse;whiteSpace=wrap;html=1;align=center;newEdgeStyle={&quot;edgeStyle&quot;:&quot;entityRelationEdgeStyle&quot;,&quot;startArrow&quot;:&quot;none&quot;,&quot;endArrow&quot;:&quot;none&quot;,&quot;segment&quot;:10,&quot;curved&quot;:1,&quot;sourcePerimeterSpacing&quot;:0,&quot;targetPerimeterSpacing&quot;:0};treeFolding=1;treeMoving=1;" vertex="1" parent="G8HXqrcgbXMNbkqpugEw-49">
          <mxGeometry width="100" height="40" as="geometry" />
        </mxCell>
        <mxCell id="G8HXqrcgbXMNbkqpugEw-51" value="" style="line;strokeWidth=1;html=1;perimeter=backbonePerimeter;points=[];outlineConnect=0;" vertex="1" parent="G8HXqrcgbXMNbkqpugEw-49">
          <mxGeometry x="20" y="22" width="60" height="10" as="geometry" />
        </mxCell>
        <mxCell id="G8HXqrcgbXMNbkqpugEw-53" value="" style="endArrow=none;html=1;rounded=0;exitX=0.452;exitY=0.005;exitDx=0;exitDy=0;exitPerimeter=0;" edge="1" parent="1" source="G8HXqrcgbXMNbkqpugEw-50">
          <mxGeometry width="50" height="50" relative="1" as="geometry">
            <mxPoint x="520" y="550" as="sourcePoint" />
            <mxPoint x="570" y="500" as="targetPoint" />
          </mxGeometry>
        </mxCell>
        <mxCell id="G8HXqrcgbXMNbkqpugEw-57" value="username&amp;nbsp;" style="ellipse;whiteSpace=wrap;html=1;align=center;newEdgeStyle={&quot;edgeStyle&quot;:&quot;entityRelationEdgeStyle&quot;,&quot;startArrow&quot;:&quot;none&quot;,&quot;endArrow&quot;:&quot;none&quot;,&quot;segment&quot;:10,&quot;curved&quot;:1,&quot;sourcePerimeterSpacing&quot;:0,&quot;targetPerimeterSpacing&quot;:0};treeFolding=1;treeMoving=1;" vertex="1" parent="1">
          <mxGeometry x="510" y="650" width="100" height="40" as="geometry" />
        </mxCell>
        <mxCell id="G8HXqrcgbXMNbkqpugEw-58" value="password" style="ellipse;whiteSpace=wrap;html=1;align=center;newEdgeStyle={&quot;edgeStyle&quot;:&quot;entityRelationEdgeStyle&quot;,&quot;startArrow&quot;:&quot;none&quot;,&quot;endArrow&quot;:&quot;none&quot;,&quot;segment&quot;:10,&quot;curved&quot;:1,&quot;sourcePerimeterSpacing&quot;:0,&quot;targetPerimeterSpacing&quot;:0};treeFolding=1;treeMoving=1;" vertex="1" parent="1">
          <mxGeometry x="690" y="690" width="100" height="40" as="geometry" />
        </mxCell>
        <mxCell id="G8HXqrcgbXMNbkqpugEw-61" style="edgeStyle=orthogonalEdgeStyle;rounded=0;orthogonalLoop=1;jettySize=auto;html=1;entryX=0.44;entryY=-0.055;entryDx=0;entryDy=0;entryPerimeter=0;endArrow=open;endFill=0;" edge="1" parent="1" source="G8HXqrcgbXMNbkqpugEw-38" target="G8HXqrcgbXMNbkqpugEw-36">
          <mxGeometry relative="1" as="geometry" />
        </mxCell>
        <mxCell id="G8HXqrcgbXMNbkqpugEw-62" value="email&amp;nbsp;" style="ellipse;whiteSpace=wrap;html=1;align=center;newEdgeStyle={&quot;edgeStyle&quot;:&quot;entityRelationEdgeStyle&quot;,&quot;startArrow&quot;:&quot;none&quot;,&quot;endArrow&quot;:&quot;none&quot;,&quot;segment&quot;:10,&quot;curved&quot;:1,&quot;sourcePerimeterSpacing&quot;:0,&quot;targetPerimeterSpacing&quot;:0};treeFolding=1;treeMoving=1;" vertex="1" parent="1">
          <mxGeometry x="570" y="700" width="100" height="40" as="geometry" />
        </mxCell>
        <mxCell id="G8HXqrcgbXMNbkqpugEw-63" value="first_name" style="ellipse;whiteSpace=wrap;html=1;align=center;newEdgeStyle={&quot;edgeStyle&quot;:&quot;entityRelationEdgeStyle&quot;,&quot;startArrow&quot;:&quot;none&quot;,&quot;endArrow&quot;:&quot;none&quot;,&quot;segment&quot;:10,&quot;curved&quot;:1,&quot;sourcePerimeterSpacing&quot;:0,&quot;targetPerimeterSpacing&quot;:0};treeFolding=1;treeMoving=1;" vertex="1" parent="1">
          <mxGeometry x="730" y="630" width="100" height="40" as="geometry" />
        </mxCell>
        <mxCell id="G8HXqrcgbXMNbkqpugEw-64" value="last_name" style="ellipse;whiteSpace=wrap;html=1;align=center;newEdgeStyle={&quot;edgeStyle&quot;:&quot;entityRelationEdgeStyle&quot;,&quot;startArrow&quot;:&quot;none&quot;,&quot;endArrow&quot;:&quot;none&quot;,&quot;segment&quot;:10,&quot;curved&quot;:1,&quot;sourcePerimeterSpacing&quot;:0,&quot;targetPerimeterSpacing&quot;:0};treeFolding=1;treeMoving=1;" vertex="1" parent="1">
          <mxGeometry x="740" y="550" width="100" height="40" as="geometry" />
        </mxCell>
        <mxCell id="G8HXqrcgbXMNbkqpugEw-65" value="" style="endArrow=none;html=1;rounded=0;exitX=0.404;exitY=-0.004;exitDx=0;exitDy=0;exitPerimeter=0;" edge="1" parent="1" source="G8HXqrcgbXMNbkqpugEw-57">
          <mxGeometry width="50" height="50" relative="1" as="geometry">
            <mxPoint x="570" y="560" as="sourcePoint" />
            <mxPoint x="620" y="510" as="targetPoint" />
          </mxGeometry>
        </mxCell>
        <mxCell id="G8HXqrcgbXMNbkqpugEw-66" value="" style="endArrow=none;html=1;rounded=0;exitX=0.5;exitY=0;exitDx=0;exitDy=0;entryX=0.443;entryY=0.985;entryDx=0;entryDy=0;entryPerimeter=0;" edge="1" parent="1" source="G8HXqrcgbXMNbkqpugEw-62" target="G8HXqrcgbXMNbkqpugEw-36">
          <mxGeometry width="50" height="50" relative="1" as="geometry">
            <mxPoint x="560" y="660" as="sourcePoint" />
            <mxPoint x="630" y="520" as="targetPoint" />
          </mxGeometry>
        </mxCell>
        <mxCell id="G8HXqrcgbXMNbkqpugEw-67" value="" style="endArrow=none;html=1;rounded=0;entryX=1;entryY=0.75;entryDx=0;entryDy=0;" edge="1" parent="1" source="G8HXqrcgbXMNbkqpugEw-64" target="G8HXqrcgbXMNbkqpugEw-36">
          <mxGeometry width="50" height="50" relative="1" as="geometry">
            <mxPoint x="630" y="710" as="sourcePoint" />
            <mxPoint x="655" y="519" as="targetPoint" />
          </mxGeometry>
        </mxCell>
        <mxCell id="G8HXqrcgbXMNbkqpugEw-68" value="" style="endArrow=none;html=1;rounded=0;entryX=0.75;entryY=1;entryDx=0;entryDy=0;" edge="1" parent="1" source="G8HXqrcgbXMNbkqpugEw-63" target="G8HXqrcgbXMNbkqpugEw-36">
          <mxGeometry width="50" height="50" relative="1" as="geometry">
            <mxPoint x="640" y="720" as="sourcePoint" />
            <mxPoint x="665" y="529" as="targetPoint" />
          </mxGeometry>
        </mxCell>
        <mxCell id="G8HXqrcgbXMNbkqpugEw-69" value="" style="endArrow=none;html=1;rounded=0;exitX=0.238;exitY=0.07;exitDx=0;exitDy=0;entryX=0.611;entryY=0.996;entryDx=0;entryDy=0;entryPerimeter=0;exitPerimeter=0;" edge="1" parent="1" source="G8HXqrcgbXMNbkqpugEw-58" target="G8HXqrcgbXMNbkqpugEw-36">
          <mxGeometry width="50" height="50" relative="1" as="geometry">
            <mxPoint x="650" y="730" as="sourcePoint" />
            <mxPoint x="675" y="539" as="targetPoint" />
          </mxGeometry>
        </mxCell>
        <mxCell id="G8HXqrcgbXMNbkqpugEw-70" value="average" style="ellipse;whiteSpace=wrap;html=1;align=center;newEdgeStyle={&quot;edgeStyle&quot;:&quot;entityRelationEdgeStyle&quot;,&quot;startArrow&quot;:&quot;none&quot;,&quot;endArrow&quot;:&quot;none&quot;,&quot;segment&quot;:10,&quot;curved&quot;:1,&quot;sourcePerimeterSpacing&quot;:0,&quot;targetPerimeterSpacing&quot;:0};treeFolding=1;treeMoving=1;" vertex="1" parent="1">
          <mxGeometry x="120" y="670" width="100" height="40" as="geometry" />
        </mxCell>
        <mxCell id="G8HXqrcgbXMNbkqpugEw-71" value="updated_at" style="ellipse;whiteSpace=wrap;html=1;align=center;newEdgeStyle={&quot;edgeStyle&quot;:&quot;entityRelationEdgeStyle&quot;,&quot;startArrow&quot;:&quot;none&quot;,&quot;endArrow&quot;:&quot;none&quot;,&quot;segment&quot;:10,&quot;curved&quot;:1,&quot;sourcePerimeterSpacing&quot;:0,&quot;targetPerimeterSpacing&quot;:0};treeFolding=1;treeMoving=1;" vertex="1" parent="1">
          <mxGeometry x="240" y="640" width="100" height="40" as="geometry" />
        </mxCell>
        <mxCell id="G8HXqrcgbXMNbkqpugEw-72" value="" style="endArrow=none;html=1;rounded=0;" edge="1" parent="1" source="G8HXqrcgbXMNbkqpugEw-47">
          <mxGeometry width="50" height="50" relative="1" as="geometry">
            <mxPoint x="100" y="710" as="sourcePoint" />
            <mxPoint x="99" y="510" as="targetPoint" />
          </mxGeometry>
        </mxCell>
        <mxCell id="G8HXqrcgbXMNbkqpugEw-73" value="" style="endArrow=none;html=1;rounded=0;entryX=0.5;entryY=1;entryDx=0;entryDy=0;exitX=0.5;exitY=0;exitDx=0;exitDy=0;" edge="1" parent="1" source="G8HXqrcgbXMNbkqpugEw-70" target="G8HXqrcgbXMNbkqpugEw-41">
          <mxGeometry width="50" height="50" relative="1" as="geometry">
            <mxPoint x="100" y="710" as="sourcePoint" />
            <mxPoint x="150" y="660" as="targetPoint" />
          </mxGeometry>
        </mxCell>
        <mxCell id="G8HXqrcgbXMNbkqpugEw-74" value="" style="endArrow=none;html=1;rounded=0;entryX=0.916;entryY=0.979;entryDx=0;entryDy=0;entryPerimeter=0;exitX=0.4;exitY=0;exitDx=0;exitDy=0;exitPerimeter=0;" edge="1" parent="1" source="G8HXqrcgbXMNbkqpugEw-71" target="G8HXqrcgbXMNbkqpugEw-41">
          <mxGeometry width="50" height="50" relative="1" as="geometry">
            <mxPoint x="100" y="710" as="sourcePoint" />
            <mxPoint x="150" y="660" as="targetPoint" />
          </mxGeometry>
        </mxCell>
      </root>
    </mxGraphModel>
  </diagram>
</mxfile>
